<svg width="121" height="121" viewBox="0 0 121 121" fill="none" xmlns="http://www.w3.org/2000/svg">
<rect opacity="0.23" width="62" height="62" transform="translate(0 59)" fill="#3EA67F"/>
<path fill-rule="evenodd" clip-rule="evenodd" d="M94.0605 61.1194H90.5693V1.94031C90.5693 0.873138 89.6973 0 88.6299 0H77.1875C76.1211 0 75.248 0.873138 75.248 1.94031V61.1194H67.2969V27.1642C67.2969 26.097 66.4238 25.2239 65.3574 25.2239H53.915C52.8486 25.2239 51.9756 26.097 51.9756 27.1642V61.1194H44.0244V13.5821C44.0244 12.5149 43.1514 11.6418 42.085 11.6418H30.6426C29.5762 11.6418 28.7031 12.5149 28.7031 13.5821V61.1194H20.752V34.9254C20.752 33.8582 19.8789 32.9851 18.8125 32.9851H7.37012C6.30273 32.9851 5.43066 33.8582 5.43066 34.9254V61.1194H1.93945C0.873047 61.1194 0 61.9925 0 63.0597C0 64.1269 0.873047 65 1.93945 65H94.0605C95.127 65 96 64.1269 96 63.0597C96 61.9925 95.127 61.1194 94.0605 61.1194Z" transform="translate(17 27)" fill="#3EA67F"/>
</svg>
