<svg width="121" height="121" viewBox="0 0 121 121" fill="none" xmlns="http://www.w3.org/2000/svg">
<rect opacity="0.23" width="62" height="62" transform="translate(0 59)" fill="#3EA67F"/>
<path d="M84 0H0V48.5031H84V0ZM28.6087 35.3208C29.4203 36.1258 29.4203 37.3333 28.6087 38.1384C28.2029 38.5409 27.6957 38.7421 27.1884 38.7421C26.6812 38.7421 26.1739 38.5409 25.7681 38.1384L12.7826 25.3585C12.3768 24.956 12.1739 24.4528 12.1739 23.9497C12.1739 23.4465 12.3768 22.9434 12.7826 22.5409L25.7681 9.55975C26.5797 8.75472 27.7971 8.75472 28.6087 9.55975C29.4203 10.3648 29.4203 11.5723 28.6087 12.3774L17.0435 23.8491L28.6087 35.3208ZM50.7246 11.9748L36.8261 37.7358C36.4203 38.4403 35.7101 38.8428 35 38.8428C34.6957 38.8428 34.3913 38.7421 34.087 38.6415C33.0725 38.1384 32.7681 36.9308 33.2754 35.9245L47.2754 10.1635C47.7826 9.15723 49 8.85535 50.0145 9.35849C50.9275 9.76101 51.3333 10.9686 50.7246 11.9748ZM71.2174 25.3585L58.2319 38.239C57.8261 38.6415 57.3188 38.8428 56.8116 38.8428C56.3043 38.8428 55.7971 38.6415 55.3913 38.239C54.5797 37.434 54.5797 36.2264 55.3913 35.4214L66.9565 23.9497L55.3913 12.478C54.5797 11.673 54.5797 10.4654 55.3913 9.66038C56.2029 8.85535 57.4203 8.85535 58.2319 9.66038L71.2174 22.5409C71.6232 22.9434 71.8261 23.4465 71.8261 23.9497C71.8261 24.4528 71.6232 24.956 71.2174 25.3585Z" transform="translate(24 43.4969)" fill="#3EA67F"/>
<path d="M84 0H0V11.4717H84V0ZM5.47826 9.25786C3.55072 9.25786 2.02899 7.74843 2.02899 5.83648C2.02899 3.92453 3.55072 2.41509 5.47826 2.41509C7.4058 2.41509 8.92754 3.92453 8.92754 5.83648C8.92754 7.74843 7.4058 9.25786 5.47826 9.25786ZM16.029 9.25786C14.1014 9.25786 12.5797 7.74843 12.5797 5.83648C12.5797 3.92453 14.1014 2.41509 16.029 2.41509C17.9565 2.41509 19.4783 3.92453 19.4783 5.83648C19.4783 7.74843 17.9565 9.25786 16.029 9.25786ZM26.4783 9.25786C24.5507 9.25786 23.029 7.74843 23.029 5.83648C23.029 3.92453 24.5507 2.41509 26.4783 2.41509C28.4058 2.41509 29.9275 3.92453 29.9275 5.83648C29.9275 7.74843 28.4058 9.25786 26.4783 9.25786Z" transform="translate(24 28)" fill="#3EA67F"/>
</svg>
