<svg width="28" height="30" viewBox="0 0 28 30" fill="none" xmlns="http://www.w3.org/2000/svg">
<path d="M2.93124 16.0413C2.7023 15.1569 2.58065 14.2297 2.58065 13.2748C2.58065 8.2647 5.93032 4.02433 10.5069 2.66986V0C4.48442 1.41677 0 6.82028 0 13.2748C0 14.7366 0.232627 16.1434 0.658065 17.464L2.93124 16.0413Z" transform="translate(0.382812 2.20947)" fill="#3EA67F"/>
<path d="M0 2.66986C4.57659 4.02433 7.92627 8.2647 7.92627 13.2748C7.92627 14.2282 7.80498 15.1543 7.57714 16.0372L9.83447 17.5071C10.2691 16.1744 10.5069 14.7524 10.5069 13.2748C10.5069 6.82028 6.02249 1.41641 0 0V2.66986V2.66986Z" transform="translate(17.1562 2.20947)" fill="#3EA67F"/>
<path d="M17.2162 0C15.2453 1.81309 12.6179 2.9224 9.73567 2.9224C6.85382 2.9224 4.22673 1.81346 2.25585 0.000736922L0 1.41309C2.47521 3.93622 5.92184 5.50304 9.73567 5.50304C13.5325 5.50304 16.9655 3.95097 19.4385 1.44774L17.2162 0Z" transform="translate(4.28711 23.6221)" fill="#3EA67F"/>
<path d="M12.5677 7.20664L5.63429 2.69051L7.35152 0L0 0.555576L2.59134 7.45843L4.24553 4.86636L11.1591 9.36922L12.5677 7.20664Z" transform="translate(15.4316 15.3672)" fill="#3EA67F"/>
<path d="M5.71429 8.1106V0H3.13364V8.1106H0L4.42396 14.0092L8.84793 8.1106H5.71429Z" transform="translate(9.59961)" fill="#3EA67F"/>
<path d="M7.00498 2.61051L0 6.99465L1.36885 9.1823L8.39373 4.78562L10.0999 7.4588L12.6909 0.555944L5.33899 0L7.00498 2.61051Z" transform="translate(0 15.5054)" fill="#3EA67F"/>
</svg>
