<svg width="1196" height="335" viewBox="0 0 1196 335" fill="none" xmlns="http://www.w3.org/2000/svg">
<circle cx="167.276" cy="167.276" r="167.276" fill="#3C896C"/>
<mask id="mask0" mask-type="alpha" maskUnits="userSpaceOnUse" x="132" y="111" width="147" height="131">
<path d="M77.666 0H145.816L68.7636 130.104H0L77.666 0Z" transform="translate(132.98 111.517)" fill="black"/>
</mask>
<g mask="url(#mask0)">
<path d="M0 0H171.038V31.3888H0V0Z" transform="translate(151.842 111.517)" fill="white"/>
<path d="M0 0H171.038V31.3888H0V0Z" transform="translate(135.543 160.725)" fill="white"/>
<path d="M0 0H171.038V31.3888H0V0Z" transform="translate(120.314 210.225)" fill="white"/>
</g>
<path d="M77.666 0H145.816L68.7636 130.104H0L77.666 0Z" transform="translate(201.576 111.517) scale(-1 1)" fill="white"/>
<path d="M77.666 0H87.8668L10.8147 130.104H0L77.666 0Z" transform="translate(201.576 111.517) scale(-1 1)" fill="#3C896C"/>
<path d="M72.9881 2.73217L52.692 64.5964L32.3958 2.73217H0L36.1038 100.31H69.2802L105.384 2.73217H72.9881Z" transform="translate(446.07 132.019)" fill="white"/>
<path d="M161.102 103.042C189.79 103.042 212.819 80.5992 212.819 51.521C212.819 22.4429 189.79 0 161.102 0C132.414 0 109.386 22.4429 109.386 51.521C109.386 80.5992 132.414 103.042 161.102 103.042ZM161.102 74.5494C148.417 74.5494 138.659 65.3771 138.659 51.521C138.659 37.665 148.417 28.4927 161.102 28.4927C173.787 28.4927 183.545 37.665 183.545 51.521C183.545 65.3771 173.787 74.5494 161.102 74.5494Z" transform="translate(446.07 132.019)" fill="white"/>
<path d="M288.99 2.73217L270.646 62.4497L248.983 2.73217H216.783L255.619 95.8213C251.325 107.726 244.885 112.019 231.224 112.019V139.341C258.546 140.707 275.915 128.412 286.843 97.3825L320.215 2.73217H288.99Z" transform="translate(446.07 132.019)" fill="white"/>
<path d="M399.983 2.73217V11.9045C393.543 4.48856 383.981 0 370.905 0C345.34 0 324.263 22.4429 324.263 51.521C324.263 80.5992 345.34 103.042 370.905 103.042C383.981 103.042 393.543 98.5535 399.983 91.1376V100.31H429.257V2.73217H399.983ZM376.76 75.33C363.294 75.33 353.536 66.1577 353.536 51.521C353.536 36.8844 363.294 27.7121 376.76 27.7121C390.225 27.7121 399.983 36.8844 399.983 51.521C399.983 66.1577 390.225 75.33 376.76 75.33Z" transform="translate(446.07 132.019)" fill="white"/>
<path d="M524.306 2.73217V12.6851C517.866 4.68372 508.499 0 495.814 0C468.102 0 447.805 22.638 447.805 49.5695C447.805 76.5009 468.102 99.139 495.814 99.139C508.499 99.139 517.866 94.4552 524.306 86.4539V95.431C524.306 109.287 515.915 116.313 502.254 116.313C489.374 116.313 483.714 110.848 480.006 104.018L455.026 118.459C464.003 134.462 480.982 142.073 501.278 142.073C527.234 142.073 552.799 128.217 552.799 95.431V2.73217H524.306ZM500.693 72.2075C486.837 72.2075 477.079 63.0352 477.079 49.5695C477.079 36.1037 486.837 26.9314 500.693 26.9314C514.549 26.9314 524.306 36.1037 524.306 49.5695C524.306 63.0352 514.549 72.2075 500.693 72.2075Z" transform="translate(446.07 132.019)" fill="white"/>
<path d="M602.378 63.2304H671.658C672.438 59.5224 672.829 55.6193 672.829 51.521C672.829 22.0526 651.752 0 623.259 0C592.425 0 571.348 22.4429 571.348 51.521C571.348 80.5992 592.034 103.042 625.406 103.042C643.946 103.042 658.387 96.2116 667.95 82.9411L644.531 69.4753C640.628 73.7687 633.798 76.8912 625.796 76.8912C615.063 76.8912 606.086 73.3784 602.378 63.2304ZM601.792 41.3729C604.524 31.42 611.94 25.9557 623.064 25.9557C631.846 25.9557 640.628 30.0539 643.751 41.3729H601.792Z" transform="translate(446.07 132.019)" fill="white"/>
<path d="M720.657 20.101V2.73217H691.384V100.31H720.657V56.2048C720.657 36.8844 737.831 32.0055 749.93 33.957V0.780609C737.636 0.780609 724.56 7.02559 720.657 20.101Z" transform="translate(446.07 132.019)" fill="white"/>
</svg>
