<svg width="29" height="17" viewBox="0 0 29 17" fill="none" xmlns="http://www.w3.org/2000/svg">
<path d="M4.2 8.4C6.5196 8.4 8.4 6.5196 8.4 4.2C8.4 1.8804 6.5196 0 4.2 0C1.8804 0 0 1.8804 0 4.2C0 6.5196 1.8804 8.4 4.2 8.4Z" transform="translate(9.80078)" fill="#3EA67F"/>
<path d="M0 7C0 3.08 3.08 0 7 0C10.92 0 14 3.08 14 7H0Z" transform="translate(7 9.7998)" fill="#3EA67F"/>
<path d="M2.8 5.6C4.3464 5.6 5.6 4.3464 5.6 2.8C5.6 1.2536 4.3464 0 2.8 0C1.2536 0 0 1.2536 0 2.8C0 4.3464 1.2536 5.6 2.8 5.6Z" transform="translate(19.5996 4.2002)" fill="#3EA67F"/>
<path d="M5.88 5.62233H1.68C1.68 3.52233 0.98 1.56234 0 0.0223351C2.66 -0.257665 5.88 2.12233 5.88 5.62233Z" transform="translate(22.1211 11.1772)" fill="#3EA67F"/>
<path d="M2.8 5.6C4.3464 5.6 5.6 4.3464 5.6 2.8C5.6 1.2536 4.3464 0 2.8 0C1.2536 0 0 1.2536 0 2.8C0 4.3464 1.2536 5.6 2.8 5.6Z" transform="translate(2.80078 4.19971)" fill="#3EA67F"/>
<path d="M0 5.62233H4.2C4.2 3.52233 4.9 1.56234 6.02 0.0223351C3.22 -0.257665 0 2.12233 0 5.62233Z" transform="translate(0 11.1772)" fill="#3EA67F"/>
</svg>
