<svg width="121" height="121" viewBox="0 0 121 121" fill="none" xmlns="http://www.w3.org/2000/svg">
<rect opacity="0.23" width="62" height="62" transform="translate(0 59)" fill="#3EA67F"/>
<path d="M85.5313 0H68.2213C67.6909 0 67.1822 0.210714 66.8071 0.585787C66.432 0.96086 66.2213 1.46957 66.2213 2V10.19H51.7113V4.53C51.7113 3.99957 51.5006 3.49086 51.1255 3.11579C50.7505 2.74071 50.2418 2.53 49.7113 2.53H36.7113C36.1809 2.53 35.6722 2.74071 35.2971 3.11579C34.922 3.49086 34.7113 3.99957 34.7113 4.53V10.19H21.8513C21.5218 8.20618 20.6547 6.35065 19.3444 4.82514C18.0341 3.29963 16.3307 2.1625 14.4193 1.53739C12.5079 0.912284 10.4617 0.823109 8.50323 1.27956C6.54472 1.73602 4.74881 2.72063 3.31075 4.12637C1.87268 5.53211 0.847492 7.30517 0.346632 9.2528C-0.154228 11.2004 -0.111593 13.2481 0.469903 15.1732C1.0514 17.0983 2.1495 18.8271 3.64483 20.1718C5.14017 21.5165 6.9755 22.4255 8.95132 22.8V43.53H3.21132C2.68089 43.53 2.17218 43.7407 1.79711 44.1158C1.42203 44.4909 1.21132 44.9996 1.21132 45.53V64.38C1.21132 64.9104 1.42203 65.4191 1.79711 65.7942C2.17218 66.1693 2.68089 66.38 3.21132 66.38H20.2113C20.7418 66.38 21.2505 66.1693 21.6255 65.7942C22.0006 65.4191 22.2113 64.9104 22.2113 64.38V56.96H32.3113C32.8103 59.6713 34.3047 62.0981 36.5012 63.7641C38.6977 65.43 41.4376 66.2148 44.183 65.9643C46.9284 65.7138 49.481 64.4461 51.3396 62.4101C53.1983 60.3741 54.2288 57.7168 54.2288 54.96C54.2288 52.2032 53.1983 49.546 51.3396 47.5099C49.481 45.4739 46.9284 44.2062 44.183 43.9557C41.4376 43.7052 38.6977 44.49 36.5012 46.1559C34.3047 47.8219 32.8103 50.2487 32.3113 52.96H22.2513V45.53C22.2513 44.9996 22.0406 44.4909 21.6655 44.1158C21.2905 43.7407 20.7818 43.53 20.2513 43.53H12.9513V22.82C15.1115 22.4182 17.1034 21.3831 18.6739 19.8465C20.2444 18.3098 21.3225 16.3409 21.7713 14.19H34.7113V19.36C34.7113 19.8904 34.922 20.3991 35.2971 20.7742C35.6722 21.1493 36.1809 21.36 36.7113 21.36H49.7113C50.2418 21.36 50.7505 21.1493 51.1255 20.7742C51.5006 20.3991 51.7113 19.8904 51.7113 19.36V14.19H66.2213V21.9C66.2213 22.4304 66.432 22.9391 66.8071 23.3142C67.1822 23.6893 67.6909 23.9 68.2213 23.9H85.5313C86.0618 23.9 86.5705 23.6893 86.9455 23.3142C87.3206 22.9391 87.5313 22.4304 87.5313 21.9V2C87.5313 1.46957 87.3206 0.96086 86.9455 0.585787C86.5705 0.210714 86.0618 0 85.5313 0Z" transform="translate(17 26)" fill="#3EA67F"/>
</svg>
