<svg width="16" height="16" viewBox="0 0 16 16" fill="none" xmlns="http://www.w3.org/2000/svg">
<path d="M12 12.6667H12.6667V14H3.33337V12.6667H4.00004V8.66667H3.33337V7.33333H4.00004V3.33333H3.33337V2H12.6667V3.33333H12V7.33333H12.6667V8.66667H12V12.6667ZM6.00004 8.66667C6.00004 9.1971 6.21075 9.70581 6.58583 10.0809C6.9609 10.456 7.46961 10.6667 8.00004 10.6667C8.53047 10.6667 9.03918 10.456 9.41425 10.0809C9.78933 9.70581 10 9.1971 10 8.66667C10 7.33333 8.00004 5.08667 8.00004 5.08667C8.00004 5.08667 6.00004 7.33333 6.00004 8.66667Z" fill="#212121"/>
</svg>
