<svg width="16" height="16" viewBox="0 0 16 16" fill="none" xmlns="http://www.w3.org/2000/svg">
<path d="M12.6667 1.99984H9.87667C9.60333 1.2265 8.87 0.666504 8 0.666504C7.13 0.666504 6.39667 1.2265 6.12333 1.99984H3.33333C2.59667 1.99984 2 2.5965 2 3.33317V12.6665C2 13.4032 2.59667 13.9998 3.33333 13.9998H12.6667C13.4033 13.9998 14 13.4032 14 12.6665V3.33317C14 2.5965 13.4033 1.99984 12.6667 1.99984ZM8 1.99984C8.36667 1.99984 8.66667 2.2965 8.66667 2.6665C8.66667 3.0365 8.36667 3.33317 8 3.33317C7.63333 3.33317 7.33333 3.0365 7.33333 2.6665C7.33333 2.2965 7.63333 1.99984 8 1.99984ZM9.33333 11.3332H4.66667V9.99984H9.33333V11.3332ZM11.3333 8.6665H4.66667V7.33317H11.3333V8.6665ZM11.3333 5.99984H4.66667V4.6665H11.3333V5.99984Z" fill="#212121"/>
</svg>
