<svg width="24" height="24" viewBox="0 0 24 24" fill="none" xmlns="http://www.w3.org/2000/svg">
<path d="M12 2C6.475 2 2 6.475 2 12C2 17.525 6.475 22 12 22C17.525 22 22 17.525 22 12C22 6.475 17.525 2 12 2ZM13.415 18.09V20H10.75V18.07C9.045 17.705 7.585 16.61 7.48 14.665H9.435C9.535 15.715 10.255 16.53 12.085 16.53C14.05 16.53 14.485 15.55 14.485 14.94C14.485 14.115 14.04 13.33 11.82 12.8C9.34 12.205 7.64 11.18 7.64 9.13C7.64 7.415 9.025 6.295 10.75 5.92V4H13.415V5.945C15.275 6.4 16.205 7.805 16.27 9.33H14.3C14.245 8.22 13.66 7.465 12.08 7.465C10.58 7.465 9.68 8.14 9.68 9.11C9.68 9.955 10.33 10.495 12.345 11.02C14.365 11.545 16.525 12.405 16.525 14.93C16.525 16.755 15.145 17.76 13.415 18.09Z" fill="#212121"/>
</svg>
