<svg width="48" height="48" viewBox="0 0 48 48" fill="none" xmlns="http://www.w3.org/2000/svg">
<path d="M24 4C12.95 4 4 12.95 4 24C4 35.05 12.95 44 24 44C35.05 44 44 35.05 44 24C44 12.95 35.05 4 24 4ZM26.83 36.18V40H21.5V36.14C18.09 35.41 15.17 33.22 14.96 29.33H18.87C19.07 31.43 20.51 33.06 24.17 33.06C28.1 33.06 28.97 31.1 28.97 29.88C28.97 28.23 28.08 26.66 23.64 25.6C18.68 24.41 15.28 22.36 15.28 18.26C15.28 14.83 18.05 12.59 21.5 11.84V8H26.83V11.89C30.55 12.8 32.41 15.61 32.54 18.66H28.6C28.49 16.44 27.32 14.93 24.16 14.93C21.16 14.93 19.36 16.28 19.36 18.22C19.36 19.91 20.66 20.99 24.69 22.04C28.73 23.09 33.05 24.81 33.05 29.86C33.05 33.51 30.29 35.52 26.83 36.18Z" fill="#212121"/>
</svg>
