<svg width="16" height="16" viewBox="0 0 16 16" fill="none" xmlns="http://www.w3.org/2000/svg">
<path d="M8.00004 1.3335C4.31671 1.3335 1.33337 4.31683 1.33337 8.00016C1.33337 11.6835 4.31671 14.6668 8.00004 14.6668C11.6834 14.6668 14.6667 11.6835 14.6667 8.00016C14.6667 4.31683 11.6834 1.3335 8.00004 1.3335ZM8.94337 12.0602V13.3335H7.16671V12.0468C6.03004 11.8035 5.05671 11.0735 4.98671 9.77683H6.29004C6.35671 10.4768 6.83671 11.0202 8.05671 11.0202C9.36671 11.0202 9.65671 10.3668 9.65671 9.96016C9.65671 9.41016 9.36004 8.88683 7.88004 8.5335C6.22671 8.13683 5.09337 7.4535 5.09337 6.08683C5.09337 4.9435 6.01671 4.19683 7.16671 3.94683V2.66683H8.94337V3.9635C10.1834 4.26683 10.8034 5.2035 10.8467 6.22016H9.53337C9.49671 5.48016 9.10671 4.97683 8.05337 4.97683C7.05337 4.97683 6.45337 5.42683 6.45337 6.0735C6.45337 6.63683 6.88671 6.99683 8.23004 7.34683C9.57671 7.69683 11.0167 8.27016 11.0167 9.9535C11.0167 11.1702 10.0967 11.8402 8.94337 12.0602Z" fill="#212121"/>
</svg>
